PathFileType	4	(X/Y/Z)	/Users/itak/Documents/Research/Walk-IL/dataset/trc/00441_00167.trc
DataRate	CameraRate	NumFrames	NumMarkers	Units	OrigDataRate	OrigDataStartFrame	OrigNumFrames
100.000000	100.000000	4	53	mm	100.000000	130	520
Frame#	Time	RPSI			LPSI			L3			STRN			T10			C7			CLAV			RBAK			LBAK			LSHO			LUPA			LAEL			LAOL			LWTS			LWPS			LFRA			LIFD			LHPS			LHTS			RSHO			RUPA			RAEL			RAOL			RWTS			RWPS			RFRA			RIFD			RHTS			RHPS			RBHD			LFHD			RFHD			LBHD			LHIP			RHIP			RASI			LASI			LKNE			LTHI			LANK			LTIP			LTOE			LMT1			LMT5			LHEE			RKNE			RTHI			RANK			RTIP			RTOE			RMT1			RMT5			RHEE			
		X1	Y1	Z1	X2	Y2	Z2	X3	Y3	Z3	X4	Y4	Z4	X5	Y5	Z5	X6	Y6	Z6	X7	Y7	Z7	X8	Y8	Z8	X9	Y9	Z9	X10	Y10	Z10	X11	Y11	Z11	X12	Y12	Z12	X13	Y13	Z13	X14	Y14	Z14	X15	Y15	Z15	X16	Y16	Z16	X17	Y17	Z17	X18	Y18	Z18	X19	Y19	Z19	X20	Y20	Z20	X21	Y21	Z21	X22	Y22	Z22	X23	Y23	Z23	X24	Y24	Z24	X25	Y25	Z25	X26	Y26	Z26	X27	Y27	Z27	X28	Y28	Z28	X29	Y29	Z29	X30	Y30	Z30	X31	Y31	Z31	X32	Y32	Z32	X33	Y33	Z33	X34	Y34	Z34	X35	Y35	Z35	X36	Y36	Z36	X37	Y37	Z37	X38	Y38	Z38	X39	Y39	Z39	X40	Y40	Z40	X41	Y41	Z41	X42	Y42	Z42	X43	Y43	Z43	X44	Y44	Z44	X45	Y45	Z45	X46	Y46	Z46	X47	Y47	Z47	X48	Y48	Z48	X49	Y49	Z49	X50	Y50	Z50	X51	Y51	Z51	X52	Y52	Z52	X53	Y53	Z53	

131	1.3	-1172.462036132812	975.102783203125	-465.4456176757812	-1096.649169921875	971.7431030273438	-585.2327880859375	-1127.845458984375	1063.2958984375	-506.2975769042969	-882.3933715820312	1249.9208984375	-391.863525390625	-1140.039306640625	1186.598510742188	-520.4347534179688	-1083.057495117188	1452.552978515625	-480.5391540527344	-910.5093383789062	1364.811645507812	-412.4550170898438	-1182.381469726562	1335.66796875	-422.2172241210938	-1069.635864257812	1405.623901367188	-584.1792602539062	-939.9183959960938	1423.80712890625	-609.7670288085938	-906.7885131835938	1303.50634765625	-701.9951171875	-876.4501342773438	1085.036010742188	-714.6791381835938	-978.6275024414062	1072.951049804688	-699.5620727539062	-834.6250610351562	885.2195434570312	-627.3485717773438	-844.5448608398438	867.3843383789062	-698.9408569335938	-855.0455932617188	997.536865234375	-709.0020141601562	-838.2471923828125	717.689208984375	-621.9871826171875	-840.7191162109375	786.6776123046875	-690.362060546875	-818.8395385742188	796.2789306640625	-622.300048828125	-1088.972900390625	1422.110717773438	-305.4309387207031	-1136.300048828125	1360.40625	-243.4780731201172	-1143.109375	1071.723388671875	-189.4406127929688	-1183.285278320312	1054.991333007812	-241.4433135986328	-1026.98974609375	874.0764770507812	-210.2314453125	-1104.907104492188	855.4290771484375	-172.9691009521484	-1139.85888671875	1013.099670410156	-180.3231506347656	-1023.116943359375	714.8908081054688	-206.2799682617188	-1012.955993652344	774.4666748046875	-197.0437774658203	-1084.680419921875	769.0564575195312	-172.9410705566406	-1060.166870117188	1648.352172851562	-382.7220153808594	-863.4176635742188	1669.556518554688	-444.4966125488281	-932.8766479492188	1672.85302734375	-333.6700134277344	-979.474609375	1648.102661132812	-541.4567260742188	-926.592041015625	857.8232421875	-614.2240600585938	-1155.2265625	863.38330078125	-290.5568542480469	-1031.521728515625	899.1376342773438	-284.7846374511719	-881.7141723632812	891.5400390625	-494.4116516113281	-972.6675415039062	436.2944641113281	-579.174560546875	-929.2498168945312	586.6316528320312	-586.4339599609375	-1063.242431640625	33.34116363525391	-607.9916381835938	-986.5993041992188	284.7366027832031	-589.848876953125	-908.0211181640625	45.17280578613281	-432.0181579589844	-986.6604614257812	50.7681999206543	-445.2393493652344	-929.68603515625	45.84201812744141	-543.736083984375	-1135.904541015625	37.0501823425293	-593.9501342773438	-1133.358520507812	464.2449035644531	-305.7000122070312	-1127.3720703125	726.768310546875	-261.3437805175781	-1184.599609375	41.84208297729492	-334.3773498535156	-1150.107421875	320.6435546875	-298.89111328125	-975.1967163085938	50.41142272949219	-276.7001342773438	-1012.82861328125	54.11779403686523	-338.9913024902344	-1077.826171875	48.1246337890625	-251.2469787597656	-1222.975341796875	34.95018005371094	-406.3761901855469	
132	1.31	-1171.419067382812	974.6826782226562	-465.7684020996094	-1095.688232421875	971.3530883789062	-585.653564453125	-1126.9892578125	1063.203491210938	-506.6625671386719	-881.4151000976562	1249.793334960938	-392.3963623046875	-1139.182983398438	1186.599243164062	-520.6068725585938	-1082.12109375	1452.490356445312	-480.6221313476562	-909.57568359375	1364.711791992188	-412.7814331054688	-1181.402465820312	1335.584350585938	-422.2534484863281	-1068.862915039062	1405.6337890625	-584.333740234375	-939.1644897460938	1423.777587890625	-610.1044921875	-906.1669311523438	1303.45751953125	-702.3591918945312	-875.9115600585938	1084.893432617188	-714.8544921875	-978.0462036132812	1072.93212890625	-699.718505859375	-834.1198120117188	885.16552734375	-627.3477172851562	-844.0551147460938	867.256103515625	-698.9251708984375	-854.4998168945312	997.4171142578125	-709.1082763671875	-837.73095703125	717.6129760742188	-621.7803344726562	-840.2396850585938	786.591796875	-690.2862548828125	-818.3584594726562	796.2207641601562	-622.2896728515625	-1087.833618164062	1421.95263671875	-305.5575256347656	-1135.215087890625	1360.327026367188	-243.5745544433594	-1142.794799804688	1071.718017578125	-189.6199035644531	-1182.8681640625	1054.98828125	-241.7059020996094	-1026.815063476562	873.9222412109375	-210.0320892333984	-1104.881713867188	855.3538818359375	-172.9556427001953	-1139.6845703125	1013.088623046875	-180.4414520263672	-1023.1259765625	714.7123413085938	-206.2577972412109	-1012.958129882812	774.28564453125	-196.8953552246094	-1084.747436523438	768.9363403320312	-172.9564819335938	-1059.022094726562	1648.213256835938	-382.79833984375	-862.3132934570312	1669.415405273438	-444.7828369140625	-931.7103271484375	1672.7353515625	-333.9175109863281	-978.5089111328125	1647.953369140625	-541.6239013671875	-925.567138671875	857.6525268554688	-615.0853881835938	-1153.82568359375	863.158935546875	-290.6849365234375	-1030.142578125	899.0015258789062	-285.3892211914062	-880.7655639648438	891.4273071289062	-495.2914428710938	-971.7742919921875	436.1388854980469	-579.360107421875	-928.2072143554688	586.4744262695312	-586.7443237304688	-1063.1962890625	33.25458145141602	-608.0985107421875	-986.1019897460938	284.4036560058594	-589.9078979492188	-908.1394653320312	45.19899368286133	-431.952392578125	-986.78076171875	50.84608840942383	-445.249755859375	-929.8286743164062	45.96533966064453	-543.719482421875	-1135.885131835938	36.9566650390625	-594.0718383789062	-1131.130981445312	464.0105590820312	-305.0659790039062	-1125.565673828125	726.6396484375	-261.3453369140625	-1184.692016601562	41.75712966918945	-334.2808227539062	-1148.57470703125	320.4986267089844	-298.5277709960938	-975.2286987304688	50.42970657348633	-276.7201843261719	-1012.876708984375	54.12881469726562	-339.0113830566406	-1077.855346679688	48.11930847167969	-251.2388305664062	-1223.038452148438	34.87502670288086	-406.3439636230469	
133	1.32	-1170.332763671875	974.1949462890625	-466.1046752929688	-1094.711303710938	970.9507446289062	-586.11572265625	-1126.09912109375	1063.091552734375	-507.0641479492188	-880.388671875	1249.639526367188	-392.96630859375	-1138.286254882812	1186.57421875	-520.796875	-1081.140014648438	1452.392944335938	-480.7167358398438	-908.6043090820312	1364.584594726562	-413.1294555664062	-1180.383178710938	1335.46728515625	-422.3118286132812	-1068.052978515625	1405.625610351562	-584.50390625	-938.3778686523438	1423.733520507812	-610.4639892578125	-905.5071411132812	1303.396118164062	-702.7444458007812	-875.327880859375	1084.737426757812	-715.0508422851562	-977.4317016601562	1072.896118164062	-699.8936767578125	-833.5414428710938	885.1043090820312	-627.3748779296875	-843.5192260742188	867.1031494140625	-698.9191284179688	-853.9049682617188	997.2867431640625	-709.232666015625	-837.1510620117188	717.5223999023438	-621.569091796875	-839.6708984375	786.4912719726562	-690.1968994140625	-817.8215942382812	796.146240234375	-622.2880859375	-1086.642578125	1421.747436523438	-305.693359375	-1134.07861328125	1360.198120117188	-243.6876678466797	-1142.4619140625	1071.677490234375	-189.8123626708984	-1182.426879882812	1054.947143554688	-241.9783020019531	-1026.632202148438	873.7313232421875	-209.7855072021484	-1104.864501953125	855.248779296875	-172.9192657470703	-1139.508666992188	1013.043029785156	-180.5554809570312	-1023.129821777344	714.5111083984375	-206.1601104736328	-1012.951232910156	774.065185546875	-196.6977081298828	-1084.8203125	768.7839965820312	-172.9351806640625	-1057.815063476562	1648.046142578125	-382.852294921875	-861.155029296875	1669.23486328125	-445.0762939453125	-930.461181640625	1672.566528320312	-334.1577758789062	-977.492431640625	1647.780029296875	-541.7719116210938	-924.4844970703125	857.4612426757812	-615.9586181640625	-1152.34716796875	862.887939453125	-290.7958068847656	-1028.712890625	898.828369140625	-286.0354919433594	-879.7482299804688	891.2946166992188	-496.19921875	-970.854736328125	435.9664611816406	-579.5361328125	-927.1139526367188	586.2971801757812	-587.0587768554688	-1063.152587890625	33.17168426513672	-608.2092895507812	-985.59765625	284.0695495605469	-589.9628295898438	-908.2725830078125	45.22052383422852	-431.8795471191406	-986.9107055664062	50.92294311523438	-445.2573547363281	-929.97705078125	46.09169769287109	-543.6952514648438	-1135.87158203125	36.8594856262207	-594.2080688476562	-1128.589477539062	463.7312316894531	-304.3117065429688	-1123.604248046875	726.4567260742188	-261.2918701171875	-1184.77880859375	41.67712783813477	-334.1758422851562	-1146.83203125	320.3478393554688	-298.0850524902344	-975.249267578125	50.42696762084961	-276.7404174804688	-1012.930297851562	54.14896392822266	-339.0132751464844	-1077.884155273438	48.10241317749023	-251.2087097167969	-1223.093017578125	34.81416320800781	-406.29833984375	
134	1.33	-1169.208374023438	973.6392822265625	-466.4593505859375	-1093.737182617188	970.5491333007812	-586.628173828125	-1125.177734375	1062.96044921875	-507.5045166015625	-879.3163452148438	1249.454223632812	-393.5707702636719	-1137.350952148438	1186.515991210938	-521.0094604492188	-1080.111572265625	1452.257202148438	-480.8253173828125	-907.59521484375	1364.42578125	-413.5007629394531	-1179.323974609375	1335.3134765625	-422.3935546875	-1067.200805664062	1405.593505859375	-584.6905517578125	-937.553466796875	1423.6708984375	-610.844482421875	-904.8048706054688	1303.317504882812	-703.1486206054688	-874.6921997070312	1084.565673828125	-715.2720336914062	-976.7708129882812	1072.829956054688	-700.0911254882812	-832.8974609375	885.0308837890625	-627.4275512695312	-842.940673828125	866.9232177734375	-698.9271240234375	-853.2662353515625	997.1386108398438	-709.3756103515625	-836.5213012695312	717.4097900390625	-621.36474609375	-839.0162353515625	786.3677978515625	-690.09326171875	-817.2365112304688	796.0480346679688	-622.2904052734375	-1085.403076171875	1421.489501953125	-305.8424377441406	-1132.89013671875	1360.0146484375	-243.8275451660156	-1142.110229492188	1071.597290039062	-190.0121765136719	-1181.95849609375	1054.867797851562	-242.2584228515625	-1026.443115234375	873.4979248046875	-209.4877624511719	-1104.852294921875	855.1096801757812	-172.8567352294922	-1139.323364257812	1012.959289550781	-180.6664428710938	-1023.135559082031	714.2828979492188	-205.968994140625	-1012.938232421875	773.8001708984375	-196.4471893310547	-1084.900268554688	768.5973510742188	-172.8704833984375	-1056.544921875	1647.843017578125	-382.8839721679688	-859.9414672851562	1669.006469726562	-445.37451171875	-929.1231079101562	1672.335571289062	-334.3847961425781	-976.4296264648438	1647.576782226562	-541.9014892578125	-923.3573608398438	857.2584838867188	-616.8452758789062	-1150.796630859375	862.5565185546875	-290.8976440429688	-1027.231811523438	898.623046875	-286.7217102050781	-878.6681518554688	891.1522216796875	-497.1285400390625	-969.9153442382812	435.7826538085938	-579.7028198242188	-925.9918212890625	586.100341796875	-587.3837890625	-1063.1123046875	33.09438323974609	-608.3238525390625	-985.035400390625	283.7583618164062	-589.9959716796875	-908.4238891601562	45.23867797851562	-431.7972717285156	-987.0505981445312	50.99606704711914	-445.2633056640625	-930.1270751953125	46.21581649780273	-543.6638793945312	-1135.862426757812	36.75794219970703	-594.360595703125	-1125.701904296875	463.4066772460938	-303.4223327636719	-1121.489379882812	726.2119140625	-261.1718444824219	-1184.847534179688	41.60762405395508	-334.0709228515625	-1144.852172851562	320.1839294433594	-297.5462341308594	-975.2550048828125	50.39939498901367	-276.7539978027344	-1012.986511230469	54.18000030517578	-338.9893493652344	-1077.912231445312	48.06974029541016	-251.1475067138672	-1223.132690429688	34.782470703125	-406.2367553710938	
